<svg width="148" height="148" viewBox="0 0 148 148" fill="none" xmlns="http://www.w3.org/2000/svg">
<path d="M73.6677 145.679C113.439 145.679 145.679 113.439 145.679 73.6677C145.679 33.8969 113.439 1.65625 73.6677 1.65625C33.8969 1.65625 1.65625 33.8969 1.65625 73.6677C1.65625 113.439 33.8969 145.679 73.6677 145.679Z" stroke="#1FB055" stroke-width="2" stroke-linecap="round" stroke-dasharray="9 9"/>
<path d="M92.2986 88.1707V59.1542C92.2938 58.0581 91.8563 57.0082 91.0812 56.2331C90.3061 55.458 89.2562 55.0204 88.16 55.0156H59.1386C58.0424 55.0204 56.9926 55.458 56.2175 56.2331C55.4424 57.0082 55.0048 58.0581 55 59.1542V88.1707C55.0048 89.2668 55.4424 90.3167 56.2175 91.0918C56.9926 91.8669 58.0424 92.3045 59.1386 92.3093H88.1551C89.2521 92.3058 90.3032 91.8688 91.0794 91.0936C91.8556 90.3183 92.2938 89.2677 92.2986 88.1707ZM66.3977 76.773L71.5775 83.0107L78.83 73.6658L88.1551 86.0981H59.1386L66.3977 76.773Z" fill="#1FB055"/>
</svg>
